<?xml version="1.0" encoding="UTF-8" standalone="no"?>
<!-- Created with Inkscape (http://www.inkscape.org/) -->

<svg
   width="1000"
   height="250"
   viewBox="0 0 264.58333 66.145831"
   version="1.1"
   id="svg1"
   inkscape:version="1.3 (0e150ed6c4, 2023-07-21)"
   sodipodi:docname="timecron.svg"
   xml:space="preserve"
   inkscape:export-filename="timecron.svg"
   inkscape:export-xdpi="96"
   inkscape:export-ydpi="96"
   xmlns:inkscape="http://www.inkscape.org/namespaces/inkscape"
   xmlns:sodipodi="http://sodipodi.sourceforge.net/DTD/sodipodi-0.dtd"
   xmlns="http://www.w3.org/2000/svg"
   xmlns:svg="http://www.w3.org/2000/svg"><sodipodi:namedview
     id="namedview1"
     pagecolor="#505050"
     bordercolor="#eeeeee"
     borderopacity="1"
     inkscape:showpageshadow="0"
     inkscape:pageopacity="0"
     inkscape:pagecheckerboard="0"
     inkscape:deskcolor="#505050"
     inkscape:document-units="mm"
     inkscape:zoom="0.72426348"
     inkscape:cx="434.23424"
     inkscape:cy="242.31513"
     inkscape:window-width="1920"
     inkscape:window-height="1009"
     inkscape:window-x="1912"
     inkscape:window-y="-8"
     inkscape:window-maximized="1"
     inkscape:current-layer="layer1" /><defs
     id="defs1" /><g
     inkscape:label="Ebene 1"
     inkscape:groupmode="layer"
     id="layer1"><g
       id="text1"
       style="font-size:42.3333px;line-height:1.25;font-family:Arial;-inkscape-font-specification:Arial;letter-spacing:-0.264583px;fill:#ffffff;fill-opacity:1;stroke-width:0.264583"
       aria-label="timecron"
       transform="matrix(1.2558058,0,0,1.2558058,-26.891639,-8.9287424)"><g
         id="text2"
         style="font-size:37.5315px;font-family:sans-serif;fill:#000000;stroke-width:0.248256"
         aria-label="timecron"><path
           style="font-weight:bold;font-family:'Space Grotesk';-inkscape-font-specification:'Space Grotesk Bold';fill:#ffffff"
           d="m 79.651745,46.582008 q -1.839043,0 -3.00252,-1.125945 Q 75.52328,44.292587 75.52328,42.37848 V 31.86966 h -4.653906 v -3.903277 h 4.653906 v -5.779851 h 4.728969 v 5.779851 h 5.104284 v 3.903277 h -5.104284 v 9.683127 q 0,1.125945 1.050882,1.125945 h 3.603024 v 3.903276 z m 9.718773,0 V 27.966383 h 4.728969 v 18.615625 z m 2.364485,-20.792452 q -1.276071,0 -2.176828,-0.825693 -0.863224,-0.825693 -0.863224,-2.176827 0,-1.351134 0.863224,-2.176827 0.900757,-0.825693 2.176828,-0.825693 1.313602,0 2.176827,0.825693 0.863224,0.825693 0.863224,2.176827 0,1.351134 -0.863224,2.176827 -0.863225,0.825693 -2.176827,0.825693 z m 7.354341,20.792452 V 27.966383 h 4.653906 v 2.026702 h 0.67557 q 0.48791,-0.938288 1.61385,-1.613855 1.12595,-0.713099 2.96499,-0.713099 1.98917,0 3.19018,0.788162 1.20101,0.75063 1.83904,1.98917 h 0.67557 q 0.63803,-1.201008 1.80151,-1.98917 1.16348,-0.788162 3.30277,-0.788162 1.72645,0 3.11512,0.750631 1.42619,0.713098 2.25189,2.214358 0.86322,1.463729 0.86322,3.715619 v 12.235269 h -4.72897 V 34.684522 q 0,-1.538791 -0.78816,-2.289421 -0.78816,-0.788162 -2.21436,-0.788162 -1.61385,0 -2.51461,1.050882 -0.86322,1.013351 -0.86322,2.927457 v 10.99673 h -4.72897 V 34.684522 q 0,-1.538791 -0.78816,-2.289421 -0.78816,-0.788162 -2.21436,-0.788162 -1.61386,0 -2.51461,1.050882 -0.86323,1.013351 -0.86323,2.927457 v 10.99673 z m 40.269446,0.525441 q -2.77733,0 -4.91663,-1.163476 -2.10176,-1.201008 -3.30277,-3.340304 -1.16348,-2.176827 -1.16348,-5.104284 v -0.450378 q 0,-2.927457 1.16348,-5.066753 1.16347,-2.176827 3.26524,-3.340303 2.10176,-1.201009 4.87909,-1.201009 2.7398,0 4.7665,1.23854 2.02671,1.201008 3.15265,3.377835 1.12595,2.139296 1.12595,4.99169 v 1.613854 h -13.54888 q 0.0751,1.914107 1.4262,3.115115 1.35113,1.201008 3.30277,1.201008 1.98917,0 2.92746,-0.863224 0.93829,-0.863225 1.4262,-1.914107 l 3.86574,2.026701 q -0.52544,0.975819 -1.53879,2.139296 -0.97582,1.125945 -2.62721,1.951638 -1.65138,0.788161 -4.20352,0.788161 z M 134.81747,35.1349 h 8.70731 q -0.15012,-1.613854 -1.3136,-2.589673 -1.12594,-0.975819 -2.96499,-0.975819 -1.9141,0 -3.04005,0.975819 -1.12594,0.975819 -1.38867,2.589673 z"
           id="path2" /><path
           style="font-weight:300;font-family:'Space Grotesk';-inkscape-font-specification:'Space Grotesk Light';fill:#ffffff"
           d="m 161.27531,47.107449 q -2.66474,0 -4.7665,-1.125945 -2.06424,-1.163476 -3.26524,-3.302772 -1.20101,-2.139295 -1.20101,-5.029221 v -0.375315 q 0,-2.927457 1.20101,-5.029221 1.201,-2.139296 3.26524,-3.265241 2.10176,-1.163477 4.7665,-1.163477 2.6272,0 4.42871,1.013351 1.83905,0.975819 2.8524,2.589674 1.05088,1.576323 1.3136,3.340303 l -2.21436,0.450378 q -0.18766,-1.463728 -0.93829,-2.664736 -0.75063,-1.23854 -2.10176,-1.951638 -1.35113,-0.75063 -3.3403,-0.75063 -1.98917,0 -3.5655,0.938287 -1.57632,0.900756 -2.51461,2.589674 -0.90075,1.651386 -0.90075,3.940807 v 0.300252 q 0,2.289422 0.90075,3.97834 0.93829,1.651386 2.51461,2.589673 1.57633,0.900756 3.5655,0.900756 3.00252,0 4.57884,-1.538791 1.57632,-1.576323 1.95164,-3.828213 l 2.21436,0.450378 q -0.33779,1.76398 -1.4262,3.377835 -1.05088,1.576323 -2.88993,2.589673 -1.80151,0.975819 -4.42871,0.975819 z m 14.03494,-0.525441 V 28.341699 h 2.17683 v 2.289421 h 0.45037 q 0.52545,-1.238539 1.5388,-1.801512 1.05088,-0.562973 2.88992,-0.562973 h 2.1393 V 30.3684 h -2.40202 q -2.06423,0 -3.30277,1.163476 -1.23854,1.163477 -1.23854,3.640556 v 11.409576 z m 21.24097,0.525441 q -2.77734,0 -4.8791,-1.163476 -2.06423,-1.201008 -3.22771,-3.302772 -1.12594,-2.139296 -1.12594,-4.954159 v -0.450378 q 0,-2.814862 1.12594,-4.916626 1.16348,-2.139296 3.22771,-3.302772 2.10176,-1.201009 4.8791,-1.201009 2.77733,0 4.84156,1.201009 2.10176,1.163476 3.22771,3.302772 1.16348,2.101764 1.16348,4.916626 v 0.450378 q 0,2.814863 -1.16348,4.954159 -1.12595,2.101764 -3.22771,3.302772 -2.06423,1.163476 -4.84156,1.163476 z m 0,-2.026701 q 3.22771,0 5.10428,-2.026701 1.87658,-2.064232 1.87658,-5.442068 v -0.300252 q 0,-3.377835 -1.87658,-5.404536 -1.87657,-2.064232 -5.10428,-2.064232 -3.19018,0 -5.10429,2.064232 -1.87657,2.026701 -1.87657,5.404536 v 0.300252 q 0,3.377836 1.87657,5.442068 1.91411,2.026701 5.10429,2.026701 z m 14.67298,1.50126 V 28.341699 h 2.17683 v 3.377835 h 0.45038 q 0.67557,-1.463729 2.21436,-2.589674 1.53879,-1.163477 4.46625,-1.163477 1.98917,0 3.64055,0.825694 1.65139,0.825693 2.62721,2.51461 1.01335,1.651386 1.01335,4.165997 v 11.109324 h -2.25189 V 35.62281 q 0,-3.00252 -1.50126,-4.316123 -1.50126,-1.313602 -4.01587,-1.313602 -2.81487,0 -4.69144,1.876575 -1.87658,1.839043 -1.87658,5.592193 v 9.120155 z"
           id="path3" /></g></g><g
       id="g2"
       transform="matrix(0.75619555,0,0,0.75619555,-9.7379866,-4.7368571)"
       style="fill:#ffffff;fill-opacity:1;stroke:none;stroke-opacity:1"><g
         transform="translate(0,-952.36218)"
         id="g1"
         style="fill:#ffffff;fill-opacity:1;stroke:none;stroke-opacity:1"><path
           style="color:#000000;text-indent:0;text-transform:none;direction:ltr;baseline-shift:baseline;fill:#ffffff;fill-opacity:1;stroke:none;stroke-opacity:1;enable-background:accumulate"
           d="m 50,972.36215 c -16.5448,0 -30,13.45522 -30,29.99995 0,16.5447 13.4552,30.0001 30,30.0001 16.5448,0 30,-13.4554 30,-30.0001 0,-16.54473 -13.4552,-29.99995 -30,-29.99995 z m 0,4 c 14.3831,0 26,11.617 26,25.99995 0,14.3829 -11.617,26.0001 -26,26.0001 -14.383,0 -26,-11.6172 -26,-26.0001 0,-14.38295 11.6169,-25.99995 26,-25.99995 z m 0,6 c -1.1046,0 -2,0.8954 -2,2 v 17.99995 c 0.081,0.7739 0.4001,1.2012 0.875,1.6563 l 11.0313,11.0625 c 0.7811,0.781 2.0312,0.7811 2.8124,0 0.781,-0.7811 0.781,-2.0315 0,-2.8125 L 52,1001.5496 v -17.18745 c 0,-1.1046 -0.8954,-2 -2,-2 z"
           fill="#000000"
           fill-opacity="1"
           stroke="none"
           marker="none"
           visibility="visible"
           display="inline"
           overflow="visible"
           id="path1" /></g></g></g></svg>
