<?xml version="1.0" encoding="UTF-8" standalone="no"?>
<!-- Created with Inkscape (http://www.inkscape.org/) -->

<svg
   width="1000"
   height="250"
   viewBox="0 0 264.58333 66.145831"
   version="1.1"
   id="svg1"
   inkscape:version="1.3 (0e150ed6c4, 2023-07-21)"
   sodipodi:docname="timecron.svg"
   xml:space="preserve"
   inkscape:export-filename="timecron.svg"
   inkscape:export-xdpi="96"
   inkscape:export-ydpi="96"
   xmlns:inkscape="http://www.inkscape.org/namespaces/inkscape"
   xmlns:sodipodi="http://sodipodi.sourceforge.net/DTD/sodipodi-0.dtd"
   xmlns="http://www.w3.org/2000/svg"
   xmlns:svg="http://www.w3.org/2000/svg"><sodipodi:namedview
     id="namedview1"
     pagecolor="#505050"
     bordercolor="#eeeeee"
     borderopacity="1"
     inkscape:showpageshadow="0"
     inkscape:pageopacity="0"
     inkscape:pagecheckerboard="0"
     inkscape:deskcolor="#505050"
     inkscape:document-units="mm"
     inkscape:zoom="0.72426348"
     inkscape:cx="424.56925"
     inkscape:cy="251.98012"
     inkscape:window-width="1920"
     inkscape:window-height="1009"
     inkscape:window-x="1912"
     inkscape:window-y="-8"
     inkscape:window-maximized="1"
     inkscape:current-layer="layer1" /><defs
     id="defs1" /><g
     inkscape:label="Ebene 1"
     inkscape:groupmode="layer"
     id="layer1"><g
       id="text1"
       style="font-size:42.3333px;line-height:1.25;font-family:Arial;-inkscape-font-specification:Arial;letter-spacing:-0.264583px;fill:#ffffff;fill-opacity:1;stroke-width:0.264583"
       aria-label="timecron"
       transform="matrix(1.2558058,0,0,1.2558058,-34.92854,-8.460245)"><path
         style="font-weight:bold;font-family:'Source Sans Pro';-inkscape-font-specification:'Source Sans Pro Bold';fill:#ffffff;fill-opacity:1"
         d="m 82.136073,31.97225 h -2.878664 v -4.61433 l 3.217331,-0.253999 0.719666,-5.587996 h 5.164663 v 5.587996 h 5.037662 v 4.868329 h -5.037662 v 8.424327 q 0,1.777999 0.719666,2.582332 0.761999,0.761999 1.989665,0.761999 0.507999,0 1.015999,-0.127 0.550333,-0.127 0.973666,-0.296333 l 0.973666,4.529663 q -0.846666,0.254 -1.989665,0.508 -1.142999,0.254 -2.666998,0.254 -1.947332,0 -3.344331,-0.592666 -1.354666,-0.592667 -2.243665,-1.650999 -0.846666,-1.058333 -1.269999,-2.539998 -0.381,-1.523999 -0.381,-3.344331 z m 18.192717,-7.95866 q -1.566336,0 -2.582335,-0.889 -1.015999,-0.931332 -1.015999,-2.370665 0,-1.439332 1.015999,-2.328331 1.015999,-0.888999 2.582335,-0.888999 1.60866,0 2.58233,0.888999 1.016,0.888999 1.016,2.328331 0,1.439333 -1.016,2.370665 -0.97367,0.889 -2.58233,0.889 z m -3.090335,3.090331 h 6.222995 v 20.997317 h -6.222995 z m 11.419365,0 h 5.08 l 0.42333,2.709331 h 0.16934 q 1.31233,-1.312332 2.79399,-2.243665 1.48167,-0.973666 3.556,-0.973666 2.24367,0 3.59833,0.931333 1.397,0.888999 2.20133,2.582331 1.397,-1.439332 2.921,-2.455331 1.56633,-1.058333 3.683,-1.058333 3.38666,0 4.95299,2.285998 1.60867,2.243665 1.60867,6.180662 v 13.038657 h -6.223 V 35.866914 q 0,-2.285998 -0.635,-3.132664 -0.59266,-0.846666 -1.94733,-0.846666 -1.56633,0 -3.59833,2.031998 v 14.181656 h -6.22299 V 35.866914 q 0,-2.285998 -0.635,-3.132664 -0.59267,-0.846666 -1.94733,-0.846666 -1.60867,0 -3.556,2.031998 v 14.181656 h -6.223 z m 34.78741,10.498658 q 0,-2.539998 0.84667,-4.571996 0.84666,-2.074332 2.20133,-3.471331 1.397,-1.439332 3.17499,-2.201332 1.778,-0.761999 3.683,-0.761999 2.24367,0 3.89467,0.761999 1.69333,0.762 2.79399,2.116666 1.143,1.354665 1.69334,3.21733 0.55033,1.820332 0.55033,3.979331 0,0.846666 -0.0847,1.566332 -0.0847,0.677333 -0.16933,1.058333 h -12.57299 q 0.42333,2.412998 1.86266,3.513664 1.48167,1.058332 3.59833,1.058332 2.24367,0 4.52967,-1.396999 l 2.07433,3.767664 q -1.60867,1.100666 -3.59833,1.735665 -1.94733,0.635 -3.85233,0.635 -2.24367,0 -4.191,-0.719666 -1.94733,-0.762 -3.38666,-2.158999 -1.43934,-1.439332 -2.24367,-3.47133 -0.80433,-2.031999 -0.80433,-4.656664 z m 13.54666,-2.158998 q 0,-1.820332 -0.80434,-2.963331 -0.80433,-1.142999 -2.70933,-1.142999 -1.48166,0 -2.62466,1.015999 -1.10067,0.973666 -1.43934,3.090331 z"
         id="path3" /><path
         style="font-weight:200;font-family:'Source Sans Pro';-inkscape-font-specification:'Source Sans Pro Ultra-Light';fill:#ffffff;fill-opacity:1"
         d="m 165.87128,38.025912 q 0,-2.539998 0.71967,-4.529663 0.762,-1.989665 1.98966,-3.344331 1.27,-1.354665 2.87867,-2.074331 1.65099,-0.719667 3.47133,-0.719667 2.11666,0 3.51366,0.804333 1.397,0.762 2.413,1.735666 l -0.84667,0.931332 q -1.016,-0.973666 -2.24366,-1.608665 -1.22767,-0.677333 -2.83633,-0.677333 -1.60867,0 -3.048,0.719666 -1.397,0.677333 -2.45533,1.947332 -1.016,1.227666 -1.60867,3.005664 -0.59266,1.735666 -0.59266,3.809997 0,2.116666 0.55033,3.852331 0.55033,1.693332 1.56633,2.963331 1.016,1.227666 2.413,1.904999 1.43933,0.677332 3.175,0.677332 1.73566,0 3.13266,-0.719666 1.43933,-0.719666 2.54,-1.735665 l 0.762,0.931333 q -1.27,1.142999 -2.87867,1.947331 -1.56633,0.762 -3.55599,0.762 -1.94734,0 -3.59833,-0.719666 -1.651,-0.719666 -2.87867,-2.074332 -1.18533,-1.354666 -1.905,-3.301998 -0.67733,-1.989665 -0.67733,-4.48733 z M 186.26531,27.86592 h 1.10067 l 0.16933,3.809997 h 0.0847 q 1.016,-1.862665 2.45533,-3.090331 1.43933,-1.227666 3.302,-1.227666 0.508,0 0.97366,0.08467 0.46567,0.08467 0.97367,0.338667 l -0.33867,1.185332 q -0.508,-0.211667 -0.84666,-0.254 -0.33867,-0.08467 -0.93133,-0.08467 -1.397,0 -2.921,1.227665 -1.524,1.185333 -2.75167,4.190997 v 14.054656 h -1.27 z m 10.48806,10.159992 q 0,-2.539998 0.71966,-4.529663 0.71967,-1.989665 1.94734,-3.344331 1.22766,-1.354665 2.83633,-2.074331 1.651,-0.719667 3.47133,-0.719667 1.82033,0 3.42899,0.719667 1.651,0.719666 2.87867,2.074331 1.22766,1.354666 1.94733,3.344331 0.71967,1.989665 0.71967,4.529663 0,2.497665 -0.71967,4.48733 -0.71967,1.947332 -1.94733,3.301998 -1.22767,1.354666 -2.87867,2.074332 -1.60866,0.719666 -3.42899,0.719666 -1.82033,0 -3.47133,-0.719666 -1.60867,-0.719666 -2.83633,-2.074332 -1.22767,-1.354666 -1.94734,-3.301998 -0.71966,-1.989665 -0.71966,-4.48733 z m 1.35466,0 q 0,2.116666 0.59267,3.852331 0.59267,1.693332 1.60866,2.963331 1.016,1.227666 2.413,1.904999 1.397,0.677332 3.00567,0.677332 1.60866,0 3.00566,-0.677332 1.397,-0.677333 2.413,-1.904999 1.016,-1.269999 1.60867,-2.963331 0.59266,-1.735665 0.59266,-3.852331 0,-2.074331 -0.59266,-3.809997 -0.59267,-1.777998 -1.60867,-3.005664 -1.016,-1.269999 -2.413,-1.947332 -1.397,-0.719666 -3.00566,-0.719666 -1.60867,0 -3.00567,0.719666 -1.397,0.677333 -2.413,1.947332 -1.01599,1.227666 -1.60866,3.005664 -0.59267,1.735666 -0.59267,3.809997 z M 220.78808,27.86592 h 1.10067 l 0.16933,3.217331 h 0.0847 q 1.60866,-1.608665 3.25966,-2.666998 1.651,-1.058333 3.76766,-1.058333 3.13267,0 4.61433,1.862666 1.48167,1.862665 1.48167,5.841995 v 13.038657 h -1.27 V 35.231915 q 0,-3.386665 -1.143,-5.037663 -1.143,-1.650999 -3.76766,-1.650999 -1.905,0 -3.51367,1.015999 -1.56633,1.015999 -3.51366,3.047998 v 15.493988 h -1.27 z"
         id="path4" /></g><g
       id="g2"
       transform="matrix(0.82925822,0,0,0.82925822,-12.521824,-8.3899902)"
       style="fill:#ffffff;fill-opacity:1;stroke:none;stroke-opacity:1"><g
         transform="translate(0,-952.36218)"
         id="g1"
         style="fill:#ffffff;fill-opacity:1;stroke:none;stroke-opacity:1"><path
           style="color:#000000;text-indent:0;text-transform:none;direction:ltr;baseline-shift:baseline;fill:#ffffff;fill-opacity:1;stroke:none;stroke-opacity:1;enable-background:accumulate"
           d="m 50,972.36215 c -16.5448,0 -30,13.45522 -30,29.99995 0,16.5447 13.4552,30.0001 30,30.0001 16.5448,0 30,-13.4554 30,-30.0001 0,-16.54473 -13.4552,-29.99995 -30,-29.99995 z m 0,4 c 14.3831,0 26,11.617 26,25.99995 0,14.3829 -11.617,26.0001 -26,26.0001 -14.383,0 -26,-11.6172 -26,-26.0001 0,-14.38295 11.6169,-25.99995 26,-25.99995 z m 0,6 c -1.1046,0 -2,0.8954 -2,2 v 17.99995 c 0.081,0.7739 0.4001,1.2012 0.875,1.6563 l 11.0313,11.0625 c 0.7811,0.781 2.0312,0.7811 2.8124,0 0.781,-0.7811 0.781,-2.0315 0,-2.8125 L 52,1001.5496 v -17.18745 c 0,-1.1046 -0.8954,-2 -2,-2 z"
           fill="#000000"
           fill-opacity="1"
           stroke="none"
           marker="none"
           visibility="visible"
           display="inline"
           overflow="visible"
           id="path1" /></g></g></g></svg>
